<?xml version="1.0" encoding="UTF-8"?>
<!DOCTYPE svg PUBLIC "-//W3C//DTD SVG 1.1//EN" "http://www.w3.org/Graphics/SVG/1.1/DTD/svg11.dtd">
<svg xmlns="http://www.w3.org/2000/svg" version="1.1" width="512px" height="512px" style="shape-rendering:geometricPrecision; text-rendering:geometricPrecision; image-rendering:optimizeQuality; fill-rule:evenodd; clip-rule:evenodd" xmlns:xlink="http://www.w3.org/1999/xlink">
<g><path style="opacity:0.004" fill="#33a6d2" d="M 211.5,127.5 C 212.833,128.167 212.833,128.167 211.5,127.5 Z"/></g>
<g><path style="opacity:0.004" fill="#31a4d3" d="M 233.5,127.5 C 234.833,128.167 234.833,128.167 233.5,127.5 Z"/></g>
<g><path style="opacity:0.004" fill="#34a7d4" d="M 257.5,128.5 C 258.833,129.167 258.833,129.167 257.5,128.5 Z"/></g>
<g><path style="opacity:0.008" fill="#36a4d4" d="M 265.5,128.5 C 266.833,129.167 266.833,129.167 265.5,128.5 Z"/></g>
<g><path style="opacity:0.004" fill="#34a3d3" d="M 273.5,128.5 C 274.833,129.167 274.833,129.167 273.5,128.5 Z"/></g>
<g><path style="opacity:0.004" fill="#309ecf" d="M 321.5,128.5 C 322.833,129.167 322.833,129.167 321.5,128.5 Z"/></g>
<g><path style="opacity:0.008" fill="#309bce" d="M 337.5,128.5 C 338.833,129.167 338.833,129.167 337.5,128.5 Z"/></g>
<g><path style="opacity:0.008" fill="#32a2d2" d="M 182.5,129.5 C 183.833,130.167 183.833,130.167 182.5,129.5 Z"/></g>
<g><path style="opacity:0.004" fill="#34a5d5" d="M 236.5,129.5 C 237.833,130.167 237.833,130.167 236.5,129.5 Z"/></g>
<g><path style="opacity:0.004" fill="#32a5d5" d="M 247.5,130.5 C 246.833,129.167 246.833,129.167 247.5,130.5 Z"/></g>
<g><path style="opacity:0.004" fill="#32a6d4" d="M 252.5,129.5 C 253.833,130.167 253.833,130.167 252.5,129.5 Z"/></g>
<g><path style="opacity:0.004" fill="#32a5d4" d="M 276.5,129.5 C 277.833,130.167 277.833,130.167 276.5,129.5 Z"/></g>
<g><path style="opacity:0.004" fill="#31a3d3" d="M 278.5,129.5 C 279.833,130.167 279.833,130.167 278.5,129.5 Z"/></g>
<g><path style="opacity:0.004" fill="#2fa1d2" d="M 284.5,130.5 C 284.897,129.475 285.563,129.308 286.5,130C 285.906,130.464 285.239,130.631 284.5,130.5 Z"/></g>
<g><path style="opacity:0.006" fill="#309fcf" d="M 311.5,130.5 C 310.761,130.631 310.094,130.464 309.5,130C 310.437,129.308 311.103,129.475 311.5,130.5 Z"/></g>
<g><path style="opacity:0.004" fill="#31a0d2" d="M 317.5,129.5 C 318.833,130.167 318.833,130.167 317.5,129.5 Z"/></g>
<g><path style="opacity:0.004" fill="#2d9bcb" d="M 342.5,129.5 C 343.833,130.167 343.833,130.167 342.5,129.5 Z"/></g>
<g><path style="opacity:0.004" fill="#35a2d1" d="M 175.5,130.5 C 176.833,131.167 176.833,131.167 175.5,130.5 Z"/></g>
<g><path style="opacity:0.012" fill="#34a3d1" d="M 177.5,130.5 C 178.833,131.167 178.833,131.167 177.5,130.5 Z"/></g>
<g><path style="opacity:0.004" fill="#3099cb" d="M 351.5,130.5 C 352.833,131.167 352.833,131.167 351.5,130.5 Z"/></g>
<g><path style="opacity:0.89" fill="#4cb2e1" d="M 311.5,130.5 C 319.953,131.8 328.119,131.8 336,130.5C 345.497,130.9 354.664,132.9 363.5,136.5C 365.5,138.167 367.5,139.833 369.5,141.5C 362.531,137.854 355.198,135.021 347.5,133C 335.505,132.5 323.505,132.333 311.5,132.5C 285.833,132.5 260.167,132.5 234.5,132.5C 216.5,132.5 198.5,132.5 180.5,132.5C 187.568,131.818 194.734,131.151 202,130.5C 217.239,131.552 232.406,131.552 247.5,130.5C 269.922,131.821 291.255,131.821 311.5,130.5 Z"/></g>
<g><path style="opacity:0.998" fill="#19a4e9" d="M 234.5,132.5 C 260.167,132.5 285.833,132.5 311.5,132.5C 319.425,133.063 327.425,133.897 335.5,135C 330.263,134.919 324.93,135.252 319.5,136C 317.775,140.137 314.942,141.97 311,141.5C 309.345,143.747 309.012,146.08 310,148.5C 309.085,147.672 308.419,146.672 308,145.5C 307.333,146.833 306.667,146.833 306,145.5C 305.683,147.301 305.016,147.634 304,146.5C 302.221,148.017 302.721,148.851 305.5,149C 304.809,150.067 304.309,151.234 304,152.5C 303.667,151.5 303.333,150.5 303,149.5C 302.558,151.679 301.558,152.345 300,151.5C 299.833,151.833 299.667,152.167 299.5,152.5C 300.376,153.251 301.376,153.751 302.5,154C 298.729,154.977 295.229,157.144 292,160.5C 290.57,160.306 289.07,160.306 287.5,160.5C 286.167,161.5 286.167,162.5 287.5,163.5C 288.603,163.998 289.603,164.331 290.5,164.5C 288.389,165.848 286.555,165.515 285,163.5C 283.691,165.891 282.691,165.891 282,163.5C 281.784,165.384 281.117,167.051 280,168.5C 279.333,167.833 278.667,167.167 278,166.5C 275.973,167.212 274.973,168.212 275,169.5C 273.715,169.05 272.548,168.383 271.5,167.5C 268.195,168.972 265.695,171.305 264,174.5C 262.883,174.335 261.716,174.002 260.5,173.5C 259.416,174.665 258.583,175.998 258,177.5C 256.333,176.167 254.667,174.833 253,173.5C 252.29,174.973 251.124,175.64 249.5,175.5C 249.227,177.451 249.893,178.951 251.5,180C 249.694,180.81 248.194,181.976 247,183.5C 243.582,182.194 240.082,181.194 236.5,180.5C 235.274,180.52 234.274,180.853 233.5,181.5C 221.736,180.331 210.403,181.831 199.5,186C 195.616,189.061 191.949,192.227 188.5,195.5C 187.671,194.668 186.838,195.001 186,196.5C 181.032,204.412 178.699,213.078 179,222.5C 178.667,218.5 178.333,214.5 178,210.5C 177.667,211.5 177.333,212.5 177,213.5C 176.667,213.167 176.333,212.833 176,212.5C 175.612,213.428 174.945,214.095 174,214.5C 168.795,216.207 163.962,217.04 159.5,217C 160.275,221.943 159.109,222.443 156,218.5C 155.333,219.833 154.667,219.833 154,218.5C 153.667,220.047 154.167,221.38 155.5,222.5C 153.675,223.571 152.508,222.904 152,220.5C 150.513,221.253 150.346,222.086 151.5,223C 149.447,224.202 147.447,224.536 145.5,224C 144.167,225 144.167,226 145.5,227C 144.5,227.333 143.5,227.667 142.5,228C 143.696,228.654 143.696,229.154 142.5,229.5C 141.667,227.5 140.833,225.5 140,223.5C 138.513,224.253 138.346,225.086 139.5,226C 138.451,226.492 137.451,226.326 136.5,225.5C 135.833,217.01 135.167,208.676 134.5,200.5C 134.5,194.833 134.5,189.167 134.5,183.5C 135.327,188.651 135.827,193.984 136,199.5C 137.356,200.38 138.856,200.714 140.5,200.5C 141.045,204.172 141.378,203.838 141.5,199.5C 142.552,199.649 143.552,199.483 144.5,199C 143.253,197.542 143.253,196.042 144.5,194.5C 142.758,192.521 140.758,191.021 138.5,190C 141.321,187.021 143.154,187.854 144,192.5C 144.388,191.572 145.055,190.905 146,190.5C 147.766,191.233 149.599,191.567 151.5,191.5C 151.5,190.5 151.5,189.5 151.5,188.5C 150.448,188.649 149.448,188.483 148.5,188C 151.56,186.942 154.394,185.442 157,183.5C 158.881,184.354 160.714,184.021 162.5,182.5C 163.167,183.5 163.833,184.5 164.5,185.5C 166.774,185.03 168.774,184.03 170.5,182.5C 173.685,184.037 176.352,183.37 178.5,180.5C 175.557,177.82 175.89,177.153 179.5,178.5C 180.548,177.617 181.715,176.95 183,176.5C 182.873,178.27 184.04,179.603 186.5,180.5C 188.138,179.295 188.471,177.962 187.5,176.5C 189.162,175.673 190.495,174.507 191.5,173C 189.905,173.617 188.572,173.284 187.5,172C 191.354,173.045 195.187,173.545 199,173.5C 199.5,173 200,172.5 200.5,172C 200.36,170.736 200.36,169.569 200.5,168.5C 201.275,170.475 202.609,171.309 204.5,171C 202.733,169.512 202.399,168.012 203.5,166.5C 204.806,167.912 205.64,169.579 206,171.5C 207.32,171.201 208.82,171.034 210.5,171C 211.126,170.25 211.626,169.416 212,168.5C 212.508,170.904 213.675,171.571 215.5,170.5C 214.833,169.833 214.167,169.167 213.5,168.5C 214.397,168.331 215.397,167.998 216.5,167.5C 215.998,166.284 215.665,165.117 215.5,164C 217.977,165.131 220.143,164.631 222,162.5C 221.981,164.107 221.815,165.774 221.5,167.5C 222.675,167.719 223.675,167.386 224.5,166.5C 224.015,163.888 224.849,163.888 227,166.5C 228.694,162.604 229.86,162.938 230.5,167.5C 230.833,167.333 231.167,167.167 231.5,167C 232.07,163.968 233.57,161.135 236,158.5C 236.216,160.384 236.883,162.051 238,163.5C 238.333,162.833 238.667,162.167 239,161.5C 239.423,162.956 240.256,163.456 241.5,163C 240.72,161.927 240.887,160.76 242,159.5C 242.333,160.833 242.667,162.167 243,163.5C 243.667,162.167 244.333,162.167 245,163.5C 246.688,162.675 246.855,161.675 245.5,160.5C 247.709,159.937 249.209,158.604 250,156.5C 250.419,157.672 251.085,158.672 252,159.5C 253.579,157.959 255.413,156.792 257.5,156C 257.381,154.719 257.881,153.552 259,152.5C 259.336,154.074 260.169,155.408 261.5,156.5C 262.298,154.922 262.798,153.256 263,151.5C 265.093,152.246 267.093,152.579 269,152.5C 270.204,151.529 270.704,150.529 270.5,149.5C 271.478,149.977 272.311,150.643 273,151.5C 273.112,148.553 274.612,147.22 277.5,147.5C 275.566,144.728 276.233,142.895 279.5,142C 278.328,141.581 277.328,140.915 276.5,140C 277.98,137.332 279.48,137.165 281,139.5C 283.503,136.372 286.169,135.372 289,136.5C 291.734,135.638 291.901,134.805 289.5,134C 272.153,133.713 254.82,133.546 237.5,133.5C 236.209,133.737 235.209,133.404 234.5,132.5 Z"/></g>
<g><path style="opacity:0.998" fill="#159fe6" d="M 311.5,132.5 C 323.505,132.333 335.505,132.5 347.5,133C 355.198,135.021 362.531,137.854 369.5,141.5C 371.404,141.738 372.738,142.738 373.5,144.5C 371.956,144.297 370.622,143.63 369.5,142.5C 366.996,142.43 364.663,142.763 362.5,143.5C 361.808,142.975 361.308,142.308 361,141.5C 359.009,142.303 356.675,143.303 354,144.5C 353.333,141.833 352.667,141.833 352,144.5C 350.431,144.153 348.598,143.986 346.5,144C 348.211,145.133 348.711,146.633 348,148.5C 346.637,146.216 345.137,146.049 343.5,148C 344.167,149.333 345.167,150.333 346.5,151C 345.216,151.684 344.049,151.517 343,150.5C 339.619,151.547 336.453,153.047 333.5,155C 334.654,155.914 334.487,156.747 333,157.5C 332.667,157.167 332.333,156.833 332,156.5C 332.195,161.614 331.528,161.614 330,156.5C 329.581,157.672 328.915,158.672 328,159.5C 326.497,159.165 325.164,159.165 324,159.5C 323.5,160 323,160.5 322.5,161C 323.623,162.044 324.956,162.71 326.5,163C 324.765,163.651 323.098,163.485 321.5,162.5C 319.869,164.297 317.869,165.464 315.5,166C 319.37,167.891 319.37,168.725 315.5,168.5C 313.52,169.484 311.853,170.817 310.5,172.5C 307.933,171.396 305.767,172.063 304,174.5C 303.71,176.044 303.044,177.377 302,178.5C 302.148,177.175 301.982,176.008 301.5,175C 302.505,173.493 303.838,172.327 305.5,171.5C 305.333,171.167 305.167,170.833 305,170.5C 301.965,171.184 299.631,172.851 298,175.5C 297.751,174.376 297.251,173.376 296.5,172.5C 296.167,173.167 295.833,173.833 295.5,174.5C 294.325,173.145 293.325,173.312 292.5,175C 293.448,175.483 294.448,175.649 295.5,175.5C 295.67,176.822 295.337,177.989 294.5,179C 292.915,179.085 291.582,179.251 290.5,179.5C 296.807,180.331 303.141,180.831 309.5,181C 299.116,180.854 289.116,181.687 279.5,183.5C 278.833,183.5 278.5,183.833 278.5,184.5C 277.671,192.657 277.171,200.99 277,209.5C 276.73,205.627 276.23,201.794 275.5,198C 276.572,193.876 276.738,189.71 276,185.5C 275.581,186.672 274.915,187.672 274,188.5C 273.333,187.167 272.667,187.167 272,188.5C 271.667,187.833 271.333,187.167 271,186.5C 270.167,188 269,189.167 267.5,190C 267.833,190.333 268.167,190.667 268.5,191C 266.754,191.471 265.087,192.138 263.5,193C 265.158,193.725 265.658,194.892 265,196.5C 260.833,191.161 255.666,187.161 249.5,184.5C 248.893,184.624 248.56,184.957 248.5,185.5C 243.708,183.423 238.708,182.089 233.5,181.5C 234.274,180.853 235.274,180.52 236.5,180.5C 240.082,181.194 243.582,182.194 247,183.5C 248.194,181.976 249.694,180.81 251.5,180C 249.893,178.951 249.227,177.451 249.5,175.5C 251.124,175.64 252.29,174.973 253,173.5C 254.667,174.833 256.333,176.167 258,177.5C 258.583,175.998 259.416,174.665 260.5,173.5C 261.716,174.002 262.883,174.335 264,174.5C 265.695,171.305 268.195,168.972 271.5,167.5C 272.548,168.383 273.715,169.05 275,169.5C 274.973,168.212 275.973,167.212 278,166.5C 278.667,167.167 279.333,167.833 280,168.5C 281.117,167.051 281.784,165.384 282,163.5C 282.691,165.891 283.691,165.891 285,163.5C 286.555,165.515 288.389,165.848 290.5,164.5C 289.603,164.331 288.603,163.998 287.5,163.5C 286.167,162.5 286.167,161.5 287.5,160.5C 289.07,160.306 290.57,160.306 292,160.5C 295.229,157.144 298.729,154.977 302.5,154C 301.376,153.751 300.376,153.251 299.5,152.5C 299.667,152.167 299.833,151.833 300,151.5C 301.558,152.345 302.558,151.679 303,149.5C 303.333,150.5 303.667,151.5 304,152.5C 304.309,151.234 304.809,150.067 305.5,149C 302.721,148.851 302.221,148.017 304,146.5C 305.016,147.634 305.683,147.301 306,145.5C 306.667,146.833 307.333,146.833 308,145.5C 308.419,146.672 309.085,147.672 310,148.5C 309.012,146.08 309.345,143.747 311,141.5C 314.942,141.97 317.775,140.137 319.5,136C 324.93,135.252 330.263,134.919 335.5,135C 327.425,133.897 319.425,133.063 311.5,132.5 Z"/></g>
<g><path style="opacity:0.004" fill="#2c95cb" d="M 363.5,135.5 C 364.833,136.167 364.833,136.167 363.5,135.5 Z"/></g>
<g><path style="opacity:0.004" fill="#2b94c8" d="M 365.5,135.5 C 366.833,136.167 366.833,136.167 365.5,135.5 Z"/></g>
<g><path style="opacity:0.998" fill="#1697e3" d="M 373.5,144.5 C 380.255,149.433 385.422,155.766 389,163.5C 390.881,167.307 392.047,171.307 392.5,175.5C 392.5,175.833 392.5,176.167 392.5,176.5C 391.4,174.723 390.566,172.723 390,170.5C 389.5,171 389,171.5 388.5,172C 390.171,179.002 388.171,180.168 382.5,175.5C 377.643,177.067 377.976,178.567 383.5,180C 382.123,182.449 380.289,182.949 378,181.5C 376.779,182.272 375.779,183.272 375,184.5C 374.508,183.451 374.674,182.451 375.5,181.5C 372.861,180.644 370.194,180.81 367.5,182C 368,182.5 368.5,183 369,183.5C 371.677,181.934 373.01,182.6 373,185.5C 372.667,185.833 372.333,186.167 372,186.5C 371.692,185.692 371.192,185.025 370.5,184.5C 367.833,186.833 365.167,189.167 362.5,191.5C 362.264,190.753 361.93,189.92 361.5,189C 359.414,188.373 359.081,188.873 360.5,190.5C 359.91,191.799 358.91,192.632 357.5,193C 358.451,193.718 358.617,194.551 358,195.5C 354.793,193.295 352.793,190.295 352,186.5C 348.975,187.709 346.141,187.209 343.5,185C 344.872,184.598 346.205,184.098 347.5,183.5C 348.192,184.025 348.692,184.692 349,185.5C 349.309,184.234 349.809,183.067 350.5,182C 349,180.5 347.5,179 346,177.5C 345.138,179.087 344.471,180.754 344,182.5C 342.927,181.72 341.76,181.887 340.5,183C 341.167,183.333 341.833,183.667 342.5,184C 341.263,184.232 340.263,184.732 339.5,185.5C 338.508,185.672 337.842,185.338 337.5,184.5C 338.009,183.659 337.343,183.159 335.5,183C 318.328,182.172 301.328,182.338 284.5,183.5C 282.833,183.5 281.167,183.5 279.5,183.5C 289.116,181.687 299.116,180.854 309.5,181C 303.141,180.831 296.807,180.331 290.5,179.5C 291.582,179.251 292.915,179.085 294.5,179C 295.337,177.989 295.67,176.822 295.5,175.5C 294.448,175.649 293.448,175.483 292.5,175C 293.325,173.312 294.325,173.145 295.5,174.5C 295.833,173.833 296.167,173.167 296.5,172.5C 297.251,173.376 297.751,174.376 298,175.5C 299.631,172.851 301.965,171.184 305,170.5C 305.167,170.833 305.333,171.167 305.5,171.5C 303.838,172.327 302.505,173.493 301.5,175C 301.982,176.008 302.148,177.175 302,178.5C 303.044,177.377 303.71,176.044 304,174.5C 305.767,172.063 307.933,171.396 310.5,172.5C 311.853,170.817 313.52,169.484 315.5,168.5C 319.37,168.725 319.37,167.891 315.5,166C 317.869,165.464 319.869,164.297 321.5,162.5C 323.098,163.485 324.765,163.651 326.5,163C 324.956,162.71 323.623,162.044 322.5,161C 323,160.5 323.5,160 324,159.5C 325.164,159.165 326.497,159.165 328,159.5C 328.915,158.672 329.581,157.672 330,156.5C 331.528,161.614 332.195,161.614 332,156.5C 332.333,156.833 332.667,157.167 333,157.5C 334.487,156.747 334.654,155.914 333.5,155C 336.453,153.047 339.619,151.547 343,150.5C 344.049,151.517 345.216,151.684 346.5,151C 345.167,150.333 344.167,149.333 343.5,148C 345.137,146.049 346.637,146.216 348,148.5C 348.711,146.633 348.211,145.133 346.5,144C 348.598,143.986 350.431,144.153 352,144.5C 352.667,141.833 353.333,141.833 354,144.5C 356.675,143.303 359.009,142.303 361,141.5C 361.308,142.308 361.808,142.975 362.5,143.5C 364.663,142.763 366.996,142.43 369.5,142.5C 370.622,143.63 371.956,144.297 373.5,144.5 Z"/></g>
<g><path style="opacity:0.998" fill="#1caeee" d="M 180.5,132.5 C 198.5,132.5 216.5,132.5 234.5,132.5C 235.209,133.404 236.209,133.737 237.5,133.5C 239.082,135.654 240.749,137.821 242.5,140C 241.234,140.309 240.067,140.809 239,141.5C 238.667,140.167 238.333,138.833 238,137.5C 236.365,139.511 235.532,141.511 235.5,143.5C 234.833,142.833 234.167,142.167 233.5,141.5C 232.193,142.816 230.693,143.816 229,144.5C 228.316,145.784 228.483,146.951 229.5,148C 228.416,150.825 227.249,150.992 226,148.5C 225.333,151.167 224.667,151.167 224,148.5C 223.667,149.167 223.333,149.833 223,150.5C 221.415,149.624 220.415,148.291 220,146.5C 218.62,149.058 217.12,149.058 215.5,146.5C 213.844,148.022 212.677,147.689 212,145.5C 211.667,146.833 211.333,148.167 211,149.5C 209.927,148.72 208.76,148.887 207.5,150C 207.833,150.333 208.167,150.667 208.5,151C 204.213,154.005 202.879,158.005 204.5,163C 201.852,161.514 198.852,160.681 195.5,160.5C 195.29,157.03 194.123,157.03 192,160.5C 192.064,163.82 190.564,165.82 187.5,166.5C 185.431,166.215 184.098,165.048 183.5,163C 182.552,162.517 181.552,162.351 180.5,162.5C 180.725,166.056 179.892,166.39 178,163.5C 175.976,164.294 173.976,163.961 172,162.5C 171.176,163.808 170.676,165.308 170.5,167C 164.197,167.254 158.363,167.088 153,166.5C 152.667,167.167 152.333,167.833 152,168.5C 148.871,167.566 145.537,167.566 142,168.5C 141.5,168 141,167.5 140.5,167C 141.817,164.562 142.651,162.062 143,159.5C 142.292,160.381 141.458,161.047 140.5,161.5C 148.84,144.992 162.173,135.326 180.5,132.5 Z"/></g>
<g><path style="opacity:0.004" fill="#329dca" d="M 148.5,144.5 C 149.833,145.167 149.833,145.167 148.5,144.5 Z"/></g>
<g><path style="opacity:0.004" fill="#359ecb" d="M 137.5,160.5 C 137.897,159.475 138.563,159.308 139.5,160C 138.906,160.464 138.239,160.631 137.5,160.5 Z"/></g>
<g><path style="opacity:0.008" fill="#359fcd" d="M 137.5,161.5 C 138.833,162.167 138.833,162.167 137.5,161.5 Z"/></g>
<g><path style="opacity:0.004" fill="#2fa0ce" d="M 135.5,166.5 C 136.833,167.167 136.833,167.167 135.5,166.5 Z"/></g>
<g><path style="opacity:0.997" fill="#19aaec" d="M 237.5,133.5 C 254.82,133.546 272.153,133.713 289.5,134C 291.901,134.805 291.734,135.638 289,136.5C 286.169,135.372 283.503,136.372 281,139.5C 279.48,137.165 277.98,137.332 276.5,140C 277.328,140.915 278.328,141.581 279.5,142C 276.233,142.895 275.566,144.728 277.5,147.5C 274.612,147.22 273.112,148.553 273,151.5C 272.311,150.643 271.478,149.977 270.5,149.5C 270.704,150.529 270.204,151.529 269,152.5C 267.093,152.579 265.093,152.246 263,151.5C 262.798,153.256 262.298,154.922 261.5,156.5C 260.169,155.408 259.336,154.074 259,152.5C 257.881,153.552 257.381,154.719 257.5,156C 255.413,156.792 253.579,157.959 252,159.5C 251.085,158.672 250.419,157.672 250,156.5C 249.209,158.604 247.709,159.937 245.5,160.5C 246.855,161.675 246.688,162.675 245,163.5C 244.333,162.167 243.667,162.167 243,163.5C 242.667,162.167 242.333,160.833 242,159.5C 240.887,160.76 240.72,161.927 241.5,163C 240.256,163.456 239.423,162.956 239,161.5C 238.667,162.167 238.333,162.833 238,163.5C 236.883,162.051 236.216,160.384 236,158.5C 233.57,161.135 232.07,163.968 231.5,167C 231.167,167.167 230.833,167.333 230.5,167.5C 229.86,162.938 228.694,162.604 227,166.5C 224.849,163.888 224.015,163.888 224.5,166.5C 223.675,167.386 222.675,167.719 221.5,167.5C 221.815,165.774 221.981,164.107 222,162.5C 220.143,164.631 217.977,165.131 215.5,164C 215.665,165.117 215.998,166.284 216.5,167.5C 215.397,167.998 214.397,168.331 213.5,168.5C 214.167,169.167 214.833,169.833 215.5,170.5C 213.675,171.571 212.508,170.904 212,168.5C 211.626,169.416 211.126,170.25 210.5,171C 208.82,171.034 207.32,171.201 206,171.5C 205.64,169.579 204.806,167.912 203.5,166.5C 202.399,168.012 202.733,169.512 204.5,171C 202.609,171.309 201.275,170.475 200.5,168.5C 200.36,169.569 200.36,170.736 200.5,172C 200,172.5 199.5,173 199,173.5C 195.187,173.545 191.354,173.045 187.5,172C 188.572,173.284 189.905,173.617 191.5,173C 190.495,174.507 189.162,175.673 187.5,176.5C 188.471,177.962 188.138,179.295 186.5,180.5C 184.04,179.603 182.873,178.27 183,176.5C 181.715,176.95 180.548,177.617 179.5,178.5C 175.89,177.153 175.557,177.82 178.5,180.5C 176.352,183.37 173.685,184.037 170.5,182.5C 168.774,184.03 166.774,185.03 164.5,185.5C 163.833,184.5 163.167,183.5 162.5,182.5C 160.714,184.021 158.881,184.354 157,183.5C 154.394,185.442 151.56,186.942 148.5,188C 149.448,188.483 150.448,188.649 151.5,188.5C 151.5,189.5 151.5,190.5 151.5,191.5C 149.599,191.567 147.766,191.233 146,190.5C 145.055,190.905 144.388,191.572 144,192.5C 143.154,187.854 141.321,187.021 138.5,190C 140.758,191.021 142.758,192.521 144.5,194.5C 143.253,196.042 143.253,197.542 144.5,199C 143.552,199.483 142.552,199.649 141.5,199.5C 141.378,203.838 141.045,204.172 140.5,200.5C 138.856,200.714 137.356,200.38 136,199.5C 135.827,193.984 135.327,188.651 134.5,183.5C 135.899,175.973 137.899,168.64 140.5,161.5C 141.458,161.047 142.292,160.381 143,159.5C 142.651,162.062 141.817,164.562 140.5,167C 141,167.5 141.5,168 142,168.5C 145.537,167.566 148.871,167.566 152,168.5C 152.333,167.833 152.667,167.167 153,166.5C 158.363,167.088 164.197,167.254 170.5,167C 170.676,165.308 171.176,163.808 172,162.5C 173.976,163.961 175.976,164.294 178,163.5C 179.892,166.39 180.725,166.056 180.5,162.5C 181.552,162.351 182.552,162.517 183.5,163C 184.098,165.048 185.431,166.215 187.5,166.5C 190.564,165.82 192.064,163.82 192,160.5C 194.123,157.03 195.29,157.03 195.5,160.5C 198.852,160.681 201.852,161.514 204.5,163C 202.879,158.005 204.213,154.005 208.5,151C 208.167,150.667 207.833,150.333 207.5,150C 208.76,148.887 209.927,148.72 211,149.5C 211.333,148.167 211.667,146.833 212,145.5C 212.677,147.689 213.844,148.022 215.5,146.5C 217.12,149.058 218.62,149.058 220,146.5C 220.415,148.291 221.415,149.624 223,150.5C 223.333,149.833 223.667,149.167 224,148.5C 224.667,151.167 225.333,151.167 226,148.5C 227.249,150.992 228.416,150.825 229.5,148C 228.483,146.951 228.316,145.784 229,144.5C 230.693,143.816 232.193,142.816 233.5,141.5C 234.167,142.167 234.833,142.833 235.5,143.5C 235.532,141.511 236.365,139.511 238,137.5C 238.333,138.833 238.667,140.167 239,141.5C 240.067,140.809 241.234,140.309 242.5,140C 240.749,137.821 239.082,135.654 237.5,133.5 Z"/></g>
<g><path style="opacity:0.008" fill="#2f89c0" d="M 394.5,175.5 C 395.833,176.167 395.833,176.167 394.5,175.5 Z"/></g>
<g><path style="opacity:0.005" fill="#339ece" d="M 131.5,178.5 C 132.573,179.251 132.74,180.251 132,181.5C 131.517,180.552 131.351,179.552 131.5,178.5 Z"/></g>
<g><path style="opacity:0.004" fill="#2f8ac4" d="M 395.5,181.5 C 396.833,182.167 396.833,182.167 395.5,181.5 Z"/></g>
<g><path style="opacity:0.997" fill="#f5f6f5" d="M 233.5,181.5 C 238.708,182.089 243.708,183.423 248.5,185.5C 256.194,189.355 262.527,194.855 267.5,202C 263.16,206.673 258.494,211.006 253.5,215C 252.423,215.47 251.423,215.303 250.5,214.5C 238.946,200.277 224.946,197.111 208.5,205C 204.094,209.417 203.428,214.25 206.5,219.5C 207.203,221.716 208.536,223.549 210.5,225C 221.755,230.63 233.421,235.13 245.5,238.5C 264.579,248.686 271.079,264.353 265,285.5C 263.107,291.532 260.274,297.032 256.5,302C 255.551,302.617 254.718,302.451 254,301.5C 253.802,299.618 253.302,297.952 252.5,296.5C 249.847,286.89 247.347,277.224 245,267.5C 244.34,265.676 243.173,264.343 241.5,263.5C 240.013,262.196 238.346,261.03 236.5,260C 226.908,256.469 217.241,253.136 207.5,250C 198.384,246.198 190.884,240.365 185,232.5C 183.119,228.693 181.953,224.693 181.5,220.5C 180.582,211.162 182.915,202.829 188.5,195.5C 191.949,192.227 195.616,189.061 199.5,186C 210.403,181.831 221.736,180.331 233.5,181.5 Z"/></g>
<g><path style="opacity:0.997" fill="#016fdc" d="M 284.5,183.5 C 301.328,182.338 318.328,182.172 335.5,183C 337.343,183.159 338.009,183.659 337.5,184.5C 319.857,183.57 302.19,183.237 284.5,183.5 Z"/></g>
<g><path style="opacity:0.004" fill="#318dc5" d="M 395.5,184.5 C 396.833,185.167 396.833,185.167 395.5,184.5 Z"/></g>
<g><path style="opacity:0.997" fill="#f5f6f5" d="M 279.5,183.5 C 281.167,183.5 282.833,183.5 284.5,183.5C 302.19,183.237 319.857,183.57 337.5,184.5C 337.842,185.338 338.508,185.672 339.5,185.5C 349.163,188.164 356.497,193.831 361.5,202.5C 365.484,213.195 366.484,224.195 364.5,235.5C 362.905,243.361 359.238,250.028 353.5,255.5C 348.612,258.775 343.279,261.275 337.5,263C 326.215,264.356 314.881,264.856 303.5,264.5C 303.5,277.167 303.5,289.833 303.5,302.5C 295.5,302.5 287.5,302.5 279.5,302.5C 279.5,262.833 279.5,223.167 279.5,183.5 Z"/></g>
<g><path style="opacity:0.008" fill="#329cd0" d="M 130.5,188.5 C 131.833,189.167 131.833,189.167 130.5,188.5 Z"/></g>
<g><path style="opacity:0.996" fill="#1289dd" d="M 392.5,176.5 C 393.339,186.81 393.672,197.143 393.5,207.5C 391.72,211.727 390.886,216.394 391,221.5C 390.167,222.5 389.333,223.5 388.5,224.5C 386.33,222.914 383.996,221.58 381.5,220.5C 381.847,222.14 381.347,223.807 380,225.5C 379.667,223.5 379.333,221.5 379,219.5C 378.529,221.246 377.862,222.913 377,224.5C 376.275,222.842 375.108,222.342 373.5,223C 372.672,223.915 371.672,224.581 370.5,225C 371.711,225.893 371.711,226.726 370.5,227.5C 369.702,225.922 369.202,224.256 369,222.5C 366.842,241.128 366.342,241.128 367.5,222.5C 367.281,215.185 365.281,208.518 361.5,202.5C 356.497,193.831 349.163,188.164 339.5,185.5C 340.263,184.732 341.263,184.232 342.5,184C 341.833,183.667 341.167,183.333 340.5,183C 341.76,181.887 342.927,181.72 344,182.5C 344.471,180.754 345.138,179.087 346,177.5C 347.5,179 349,180.5 350.5,182C 349.809,183.067 349.309,184.234 349,185.5C 348.692,184.692 348.192,184.025 347.5,183.5C 346.205,184.098 344.872,184.598 343.5,185C 346.141,187.209 348.975,187.709 352,186.5C 352.793,190.295 354.793,193.295 358,195.5C 358.617,194.551 358.451,193.718 357.5,193C 358.91,192.632 359.91,191.799 360.5,190.5C 359.081,188.873 359.414,188.373 361.5,189C 361.93,189.92 362.264,190.753 362.5,191.5C 365.167,189.167 367.833,186.833 370.5,184.5C 371.192,185.025 371.692,185.692 372,186.5C 372.333,186.167 372.667,185.833 373,185.5C 373.01,182.6 371.677,181.934 369,183.5C 368.5,183 368,182.5 367.5,182C 370.194,180.81 372.861,180.644 375.5,181.5C 374.674,182.451 374.508,183.451 375,184.5C 375.779,183.272 376.779,182.272 378,181.5C 380.289,182.949 382.123,182.449 383.5,180C 377.976,178.567 377.643,177.067 382.5,175.5C 388.171,180.168 390.171,179.002 388.5,172C 389,171.5 389.5,171 390,170.5C 390.566,172.723 391.4,174.723 392.5,176.5 Z"/></g>
<g><path style="opacity:0.008" fill="#2e88c4" d="M 395.5,192.5 C 396.573,193.251 396.74,194.251 396,195.5C 395.517,194.552 395.351,193.552 395.5,192.5 Z"/></g>
<g><path style="opacity:0.008" fill="#329ece" d="M 130.5,196.5 C 131.833,197.167 131.833,197.167 130.5,196.5 Z"/></g>
<g><path style="opacity:0.004" fill="#2f96ca" d="M 127.5,200.5 C 128.833,201.167 128.833,201.167 127.5,200.5 Z"/></g>
<g><path style="opacity:0.998" fill="#1879db" d="M 250.5,214.5 C 250.565,214.938 250.399,215.272 250,215.5C 248.961,214.29 247.794,213.29 246.5,212.5C 243.411,208.449 239.411,205.616 234.5,204C 228.235,202.516 221.902,202.182 215.5,203C 207.457,205.577 204.457,211.077 206.5,219.5C 203.428,214.25 204.094,209.417 208.5,205C 224.946,197.111 238.946,200.277 250.5,214.5 Z"/></g>
<g><path style="opacity:0.008" fill="#2f89c4" d="M 395.5,200.5 C 396.573,201.251 396.74,202.251 396,203.5C 395.517,202.552 395.351,201.552 395.5,200.5 Z"/></g>
<g><path style="opacity:0.004" fill="#309cce" d="M 130.5,203.5 C 131.525,203.897 131.692,204.563 131,205.5C 130.536,204.906 130.369,204.239 130.5,203.5 Z"/></g>
<g><path style="opacity:0.996" fill="#0a5ed0" d="M 335.5,238.5 C 335.062,238.565 334.728,238.399 334.5,238C 338.696,234.268 340.362,229.602 339.5,224C 340.401,214.783 336.401,209.116 327.5,207C 320.174,206.5 312.841,206.334 305.5,206.5C 305.5,218.167 305.5,229.833 305.5,241.5C 313.019,241.175 320.352,241.508 327.5,242.5C 319.5,242.5 311.5,242.5 303.5,242.5C 303.5,230.167 303.5,217.833 303.5,205.5C 312.173,205.334 320.84,205.5 329.5,206C 335.307,207.807 339.141,211.64 341,217.5C 342.248,224.215 341.248,230.548 338,236.5C 337.292,237.381 336.458,238.047 335.5,238.5 Z"/></g>
<g><path style="opacity:0.004" fill="#2f97c9" d="M 127.5,206.5 C 128.833,207.167 128.833,207.167 127.5,206.5 Z"/></g>
<g><path style="opacity:0.004" fill="#2b86c4" d="M 395.5,208.5 C 396.622,210.288 396.789,212.288 396,214.5C 395.505,212.527 395.338,210.527 395.5,208.5 Z"/></g>
<g><path style="opacity:0.999" fill="#1195e1" d="M 246.5,212.5 C 244.328,212.837 242.495,213.837 241,215.5C 238.923,214.983 236.923,214.316 235,213.5C 233.786,215.049 232.286,216.215 230.5,217C 230.833,217.333 231.167,217.667 231.5,218C 230.333,218.5 229.5,219.333 229,220.5C 227.837,216.787 226.337,216.787 224.5,220.5C 224.833,221.167 225.167,221.833 225.5,222.5C 224.294,224.149 222.961,225.649 221.5,227C 222.833,227.667 224.167,228.333 225.5,229C 218.14,227.987 211.807,224.82 206.5,219.5C 204.457,211.077 207.457,205.577 215.5,203C 221.902,202.182 228.235,202.516 234.5,204C 239.411,205.616 243.411,208.449 246.5,212.5 Z"/></g>
<g><path style="opacity:0.008" fill="#309bcc" d="M 130.5,212.5 C 131.833,213.167 131.833,213.167 130.5,212.5 Z"/></g>
<g><path style="opacity:0.997" fill="#1187da" d="M 335.5,238.5 C 333.388,240.771 330.721,242.104 327.5,242.5C 320.352,241.508 313.019,241.175 305.5,241.5C 305.5,229.833 305.5,218.167 305.5,206.5C 312.841,206.334 320.174,206.5 327.5,207C 336.401,209.116 340.401,214.783 339.5,224C 340.362,229.602 338.696,234.268 334.5,238C 334.728,238.399 335.062,238.565 335.5,238.5 Z"/></g>
<g><path style="opacity:0.008" fill="#2c85c5" d="M 395.5,215.5 C 396.622,217.288 396.789,219.288 396,221.5C 395.505,219.527 395.338,217.527 395.5,215.5 Z"/></g>
<g><path style="opacity:0.998" fill="#118cdd" d="M 248.5,185.5 C 248.56,184.957 248.893,184.624 249.5,184.5C 255.666,187.161 260.833,191.161 265,196.5C 265.658,194.892 265.158,193.725 263.5,193C 265.087,192.138 266.754,191.471 268.5,191C 268.167,190.667 267.833,190.333 267.5,190C 269,189.167 270.167,188 271,186.5C 271.333,187.167 271.667,187.833 272,188.5C 272.667,187.167 273.333,187.167 274,188.5C 274.915,187.672 275.581,186.672 276,185.5C 276.738,189.71 276.572,193.876 275.5,198C 276.23,201.794 276.73,205.627 277,209.5C 277.171,200.99 277.671,192.657 278.5,184.5C 278.5,199.167 278.5,213.833 278.5,228.5C 277.668,252.33 277.168,276.33 277,300.5C 276.812,294.252 276.312,288.085 275.5,282C 275.957,281.586 276.291,281.086 276.5,280.5C 274.994,279.253 273.494,279.253 272,280.5C 270.62,278.46 270.12,276.46 270.5,274.5C 269.702,276.078 269.202,277.744 269,279.5C 270.374,265.618 266.207,253.784 256.5,244C 253.14,241.454 249.474,239.621 245.5,238.5C 233.421,235.13 221.755,230.63 210.5,225C 208.536,223.549 207.203,221.716 206.5,219.5C 211.807,224.82 218.14,227.987 225.5,229C 224.167,228.333 222.833,227.667 221.5,227C 222.961,225.649 224.294,224.149 225.5,222.5C 225.167,221.833 224.833,221.167 224.5,220.5C 226.337,216.787 227.837,216.787 229,220.5C 229.5,219.333 230.333,218.5 231.5,218C 231.167,217.667 230.833,217.333 230.5,217C 232.286,216.215 233.786,215.049 235,213.5C 236.923,214.316 238.923,214.983 241,215.5C 242.495,213.837 244.328,212.837 246.5,212.5C 247.794,213.29 248.961,214.29 250,215.5C 250.399,215.272 250.565,214.938 250.5,214.5C 251.423,215.303 252.423,215.47 253.5,215C 258.494,211.006 263.16,206.673 267.5,202C 262.527,194.855 256.194,189.355 248.5,185.5 Z"/></g>
<g><path style="opacity:0.004" fill="#3299cc" d="M 130.5,220.5 C 131.833,221.167 131.833,221.167 130.5,220.5 Z"/></g>
<g><path style="opacity:0.997" fill="#127cd7" d="M 361.5,202.5 C 365.281,208.518 367.281,215.185 367.5,222.5C 366.342,241.128 366.842,241.128 369,222.5C 369.202,224.256 369.702,225.922 370.5,227.5C 371.711,226.726 371.711,225.893 370.5,225C 371.672,224.581 372.672,223.915 373.5,223C 375.108,222.342 376.275,222.842 377,224.5C 377.862,222.913 378.529,221.246 379,219.5C 379.333,221.5 379.667,223.5 380,225.5C 381.347,223.807 381.847,222.14 381.5,220.5C 383.996,221.58 386.33,222.914 388.5,224.5C 389.333,223.5 390.167,222.5 391,221.5C 390.886,216.394 391.72,211.727 393.5,207.5C 393.5,215.5 393.5,223.5 393.5,231.5C 392.683,229.031 392.183,226.365 392,223.5C 391.667,230.5 391.333,237.5 391,244.5C 389.935,242.604 389.102,242.437 388.5,244C 389.64,246.185 390.64,248.018 391.5,249.5C 388.495,249.25 386.662,250.583 386,253.5C 384.615,252.449 383.615,251.116 383,249.5C 381.956,250.623 381.29,251.956 381,253.5C 380.667,252.5 380.333,251.5 380,250.5C 379.667,250.833 379.333,251.167 379,251.5C 378,249.167 376.333,247.5 374,246.5C 371.651,244.256 372.151,243.089 375.5,243C 373.567,242.217 372.067,242.717 371,244.5C 370.667,244.167 370.333,243.833 370,243.5C 368.646,248.537 366.979,248.537 365,243.5C 362.866,245.578 363.032,247.412 365.5,249C 363.99,249.85 362.49,250.683 361,251.5C 360.5,251.167 360,250.833 359.5,250.5C 363.323,245.936 364.989,240.936 364.5,235.5C 366.484,224.195 365.484,213.195 361.5,202.5 Z"/></g>
<g><path style="opacity:0.008" fill="#2f82c4" d="M 395.5,224.5 C 396.573,225.251 396.74,226.251 396,227.5C 395.517,226.552 395.351,225.552 395.5,224.5 Z"/></g>
<g><path style="opacity:0.975" fill="#41a2d6" d="M 140.5,161.5 C 137.899,168.64 135.899,175.973 134.5,183.5C 134.5,189.167 134.5,194.833 134.5,200.5C 134.5,220.833 134.5,241.167 134.5,261.5C 134.5,268.5 134.5,275.5 134.5,282.5C 134.081,304.202 134.581,325.869 136,347.5C 137.683,353.386 139.849,359.053 142.5,364.5C 142.167,364.5 141.833,364.5 141.5,364.5C 140.404,361.968 139.071,359.635 137.5,357.5C 136.537,352.951 135.204,348.617 133.5,344.5C 132.273,314.453 132.273,284.953 133.5,256C 132.833,254 132.167,252 131.5,250C 132.225,245.715 132.892,241.381 133.5,237C 132.704,220.618 132.537,204.118 133,187.5C 133.055,178.011 135.555,169.344 140.5,161.5 Z"/></g>
<g><path style="opacity:0.004" fill="#3297ca" d="M 130.5,228.5 C 131.833,229.167 131.833,229.167 130.5,228.5 Z"/></g>
<g><path style="opacity:0.008" fill="#2d84c5" d="M 395.5,228.5 C 396.573,229.251 396.74,230.251 396,231.5C 395.517,230.552 395.351,229.552 395.5,228.5 Z"/></g>
<g><path style="opacity:0.006" fill="#2d81c3" d="M 395.5,232.5 C 396.525,232.897 396.692,233.563 396,234.5C 395.536,233.906 395.369,233.239 395.5,232.5 Z"/></g>
<g><path style="opacity:0.008" fill="#3095ca" d="M 130.5,236.5 C 131.833,237.167 131.833,237.167 130.5,236.5 Z"/></g>
<g><path style="opacity:0.997" fill="#118adc" d="M 190.5,241.5 C 194.638,244.406 198.971,247.073 203.5,249.5C 204.429,250.689 204.762,252.022 204.5,253.5C 203.022,253.238 201.689,253.571 200.5,254.5C 201.582,254.749 202.915,254.915 204.5,255C 203.457,256.976 202.123,257.476 200.5,256.5C 197.107,258.225 194.274,260.559 192,263.5C 190.482,263.943 189.315,263.276 188.5,261.5C 188.002,262.603 187.669,263.603 187.5,264.5C 185.65,263.758 184.984,262.758 185.5,261.5C 184.667,262.5 183.833,263.5 183,264.5C 180.667,264.167 178.333,263.833 176,263.5C 175.5,264 175,264.5 174.5,265C 177.689,265.981 178.022,267.314 175.5,269C 179.5,269.667 179.5,270.333 175.5,271C 177.473,271.495 179.473,271.662 181.5,271.5C 181.351,270.448 181.517,269.448 182,268.5C 182.402,269.872 182.902,271.205 183.5,272.5C 182.185,274.316 180.685,275.983 179,277.5C 178.308,278.437 178.475,279.103 179.5,279.5C 179.167,280.5 178.5,281.167 177.5,281.5C 177.565,281.062 177.399,280.728 177,280.5C 173.668,283.484 171.668,287.151 171,291.5C 169.817,290.269 168.651,290.269 167.5,291.5C 168.074,293.059 168.74,294.559 169.5,296C 168.167,296.667 166.833,297.333 165.5,298C 166.28,299.073 166.113,300.24 165,301.5C 164.586,301.043 164.086,300.709 163.5,300.5C 162.751,302.012 161.584,303.012 160,303.5C 158.85,302.576 157.85,302.576 157,303.5C 155.417,301.007 153.917,301.174 152.5,304C 150.567,304.251 148.734,304.751 147,305.5C 146.667,305.167 146.333,304.833 146,304.5C 145.316,305.784 145.483,306.951 146.5,308C 145.833,308.333 145.167,308.667 144.5,309C 145.833,309.667 145.833,310.333 144.5,311C 142.623,311.576 140.789,311.409 139,310.5C 137.923,311.429 136.756,312.096 135.5,312.5C 135.827,302.319 135.494,292.319 134.5,282.5C 134.5,275.5 134.5,268.5 134.5,261.5C 135.468,263.607 135.802,265.941 135.5,268.5C 137.655,268.372 139.655,268.872 141.5,270C 141.167,270.333 140.833,270.667 140.5,271C 142.101,271.273 143.601,271.773 145,272.5C 145.333,271.833 145.667,271.167 146,270.5C 147.333,271.167 148.667,271.833 150,272.5C 150.46,270.286 149.793,269.619 148,270.5C 147.228,269.151 146.061,268.318 144.5,268C 146.715,266.956 149.048,266.29 151.5,266C 152.11,264.053 152.943,262.219 154,260.5C 154.419,261.672 155.085,262.672 156,263.5C 157.119,262.448 157.619,261.281 157.5,260C 158.996,259.493 160.163,259.993 161,261.5C 161.903,260.299 163.069,259.465 164.5,259C 163.366,257.984 163.699,257.317 165.5,257C 164.833,256 164.167,255 163.5,254C 165.311,254.875 167.311,255.209 169.5,255C 169.833,254.667 170.167,254.333 170.5,254C 168.789,252.867 168.289,251.367 169,249.5C 170.835,250.119 173.001,250.286 175.5,250C 174.5,249.667 173.5,249.333 172.5,249C 174,248.167 175.167,247 176,245.5C 176.333,245.833 176.667,246.167 177,246.5C 177.667,245.167 178.333,243.833 179,242.5C 179.777,244.701 180.944,244.701 182.5,242.5C 181.708,240.805 182.042,239.138 183.5,237.5C 184.696,237.846 184.696,238.346 183.5,239C 184.449,239.617 185.282,239.451 186,238.5C 187.129,240.141 188.629,241.141 190.5,241.5 Z"/></g>
<g><path style="opacity:0.004" fill="#2b80c4" d="M 395.5,236.5 C 396.525,236.897 396.692,237.563 396,238.5C 395.536,237.906 395.369,237.239 395.5,236.5 Z"/></g>
<g><path style="opacity:0.004" fill="#2c7ec3" d="M 395.5,241.5 C 396.525,241.897 396.692,242.563 396,243.5C 395.536,242.906 395.369,242.239 395.5,241.5 Z"/></g>
<g><path style="opacity:0.004" fill="#3094c9" d="M 130.5,244.5 C 131.833,245.167 131.833,245.167 130.5,244.5 Z"/></g>
<g><path style="opacity:0.004" fill="#2b80c5" d="M 395.5,244.5 C 396.525,244.897 396.692,245.563 396,246.5C 395.536,245.906 395.369,245.239 395.5,244.5 Z"/></g>
<g><path style="opacity:0.004" fill="#2d7ec1" d="M 395.5,248.5 C 396.613,249.946 396.78,251.613 396,253.5C 395.506,251.866 395.34,250.199 395.5,248.5 Z"/></g>
<g><path style="opacity:0.004" fill="#2f91c7" d="M 130.5,252.5 C 131.833,253.167 131.833,253.167 130.5,252.5 Z"/></g>
<g><path style="opacity:0.997" fill="#1393e1" d="M 188.5,195.5 C 182.915,202.829 180.582,211.162 181.5,220.5C 180.822,228.838 183.822,235.838 190.5,241.5C 188.629,241.141 187.129,240.141 186,238.5C 185.282,239.451 184.449,239.617 183.5,239C 184.696,238.346 184.696,237.846 183.5,237.5C 182.042,239.138 181.708,240.805 182.5,242.5C 180.944,244.701 179.777,244.701 179,242.5C 178.333,243.833 177.667,245.167 177,246.5C 176.667,246.167 176.333,245.833 176,245.5C 175.167,247 174,248.167 172.5,249C 173.5,249.333 174.5,249.667 175.5,250C 173.001,250.286 170.835,250.119 169,249.5C 168.289,251.367 168.789,252.867 170.5,254C 170.167,254.333 169.833,254.667 169.5,255C 167.311,255.209 165.311,254.875 163.5,254C 164.167,255 164.833,256 165.5,257C 163.699,257.317 163.366,257.984 164.5,259C 163.069,259.465 161.903,260.299 161,261.5C 160.163,259.993 158.996,259.493 157.5,260C 157.619,261.281 157.119,262.448 156,263.5C 155.085,262.672 154.419,261.672 154,260.5C 152.943,262.219 152.11,264.053 151.5,266C 149.048,266.29 146.715,266.956 144.5,268C 146.061,268.318 147.228,269.151 148,270.5C 149.793,269.619 150.46,270.286 150,272.5C 148.667,271.833 147.333,271.167 146,270.5C 145.667,271.167 145.333,271.833 145,272.5C 143.601,271.773 142.101,271.273 140.5,271C 140.833,270.667 141.167,270.333 141.5,270C 139.655,268.872 137.655,268.372 135.5,268.5C 135.802,265.941 135.468,263.607 134.5,261.5C 134.5,241.167 134.5,220.833 134.5,200.5C 135.167,208.676 135.833,217.01 136.5,225.5C 137.451,226.326 138.451,226.492 139.5,226C 138.346,225.086 138.513,224.253 140,223.5C 140.833,225.5 141.667,227.5 142.5,229.5C 143.696,229.154 143.696,228.654 142.5,228C 143.5,227.667 144.5,227.333 145.5,227C 144.167,226 144.167,225 145.5,224C 147.447,224.536 149.447,224.202 151.5,223C 150.346,222.086 150.513,221.253 152,220.5C 152.508,222.904 153.675,223.571 155.5,222.5C 154.167,221.38 153.667,220.047 154,218.5C 154.667,219.833 155.333,219.833 156,218.5C 159.109,222.443 160.275,221.943 159.5,217C 163.962,217.04 168.795,216.207 174,214.5C 174.945,214.095 175.612,213.428 176,212.5C 176.333,212.833 176.667,213.167 177,213.5C 177.333,212.5 177.667,211.5 178,210.5C 178.333,214.5 178.667,218.5 179,222.5C 178.699,213.078 181.032,204.412 186,196.5C 186.838,195.001 187.671,194.668 188.5,195.5 Z"/></g>
<g><path style="opacity:0.008" fill="#2c7cc0" d="M 395.5,256.5 C 396.573,257.251 396.74,258.251 396,259.5C 395.517,258.552 395.351,257.552 395.5,256.5 Z"/></g>
<g><path style="opacity:0.997" fill="#1175d3" d="M 393.5,231.5 C 393.5,245.167 393.5,258.833 393.5,272.5C 392.676,268.688 392.176,264.688 392,260.5C 391.667,264.167 391.333,267.833 391,271.5C 390.308,272.025 389.808,272.692 389.5,273.5C 391.124,274.869 391.624,276.536 391,278.5C 390.581,277.328 389.915,276.328 389,275.5C 386.961,275.366 384.794,275.866 382.5,277C 384.709,277.957 384.543,279.124 382,280.5C 378.562,276.139 375.895,277.139 374,283.5C 372.956,282.377 372.29,281.044 372,279.5C 371.798,281.256 371.298,282.922 370.5,284.5C 367.751,283.511 365.751,284.511 364.5,287.5C 359.546,286.422 358.546,287.922 361.5,292C 359.182,292.342 357.015,291.842 355,290.5C 355.178,292.44 354.178,294.107 352,295.5C 350.609,293.285 348.943,293.285 347,295.5C 344.794,291.469 344.294,291.636 345.5,296C 344.258,299.357 343.424,299.19 343,295.5C 341.667,296.167 340.333,296.833 339,297.5C 339.077,298.738 338.911,299.738 338.5,300.5C 337.376,298.631 336.543,296.631 336,294.5C 335.626,295.416 335.126,296.25 334.5,297C 335.357,297.689 336.023,298.522 336.5,299.5C 335.052,300.354 333.719,301.354 332.5,302.5C 330.335,302.349 328.002,301.683 325.5,300.5C 325.704,301.529 325.204,302.529 324,303.5C 322.372,302.903 320.705,303.237 319,304.5C 318.085,303.672 317.419,302.672 317,301.5C 316.418,304.668 315.418,305.001 314,302.5C 312.173,304.302 311.006,306.468 310.5,309C 313.695,309.181 316.695,309.681 319.5,310.5C 305.163,310.333 290.829,310.5 276.5,311C 275.944,311.383 275.611,311.883 275.5,312.5C 274.167,314.5 272.5,316.167 270.5,317.5C 270.19,316.262 269.69,316.262 269,317.5C 266.714,323.701 264.047,329.701 261,335.5C 259.475,331.799 257.975,328.799 256.5,326.5C 255.129,324.064 254.129,321.397 253.5,318.5C 254.097,318.265 254.43,317.765 254.5,317C 250.937,306.917 247.604,296.75 244.5,286.5C 244.622,284.006 245.622,283.339 247.5,284.5C 248.541,288.998 250.041,293.331 252,297.5C 252.399,297.272 252.565,296.938 252.5,296.5C 253.302,297.952 253.802,299.618 254,301.5C 254.718,302.451 255.551,302.617 256.5,302C 260.274,297.032 263.107,291.532 265,285.5C 271.079,264.353 264.579,248.686 245.5,238.5C 249.474,239.621 253.14,241.454 256.5,244C 266.207,253.784 270.374,265.618 269,279.5C 269.202,277.744 269.702,276.078 270.5,274.5C 270.12,276.46 270.62,278.46 272,280.5C 273.494,279.253 274.994,279.253 276.5,280.5C 276.291,281.086 275.957,281.586 275.5,282C 276.312,288.085 276.812,294.252 277,300.5C 277.168,276.33 277.668,252.33 278.5,228.5C 278.333,253.502 278.5,278.502 279,303.5C 287.333,304.833 295.667,304.833 304,303.5C 305.46,291.267 305.96,278.934 305.5,266.5C 315.874,266.766 326.207,266.266 336.5,265C 343.136,263.354 348.803,260.187 353.5,255.5C 359.238,250.028 362.905,243.361 364.5,235.5C 364.989,240.936 363.323,245.936 359.5,250.5C 360,250.833 360.5,251.167 361,251.5C 362.49,250.683 363.99,249.85 365.5,249C 363.032,247.412 362.866,245.578 365,243.5C 366.979,248.537 368.646,248.537 370,243.5C 370.333,243.833 370.667,244.167 371,244.5C 372.067,242.717 373.567,242.217 375.5,243C 372.151,243.089 371.651,244.256 374,246.5C 376.333,247.5 378,249.167 379,251.5C 379.333,251.167 379.667,250.833 380,250.5C 380.333,251.5 380.667,252.5 381,253.5C 381.29,251.956 381.956,250.623 383,249.5C 383.615,251.116 384.615,252.449 386,253.5C 386.662,250.583 388.495,249.25 391.5,249.5C 390.64,248.018 389.64,246.185 388.5,244C 389.102,242.437 389.935,242.604 391,244.5C 391.333,237.5 391.667,230.5 392,223.5C 392.183,226.365 392.683,229.031 393.5,231.5 Z"/></g>
<g><path style="opacity:0.004" fill="#2b7ac0" d="M 395.5,260.5 C 396.833,261.167 396.833,261.167 395.5,260.5 Z"/></g>
<g><path style="opacity:0.004" fill="#2d7bc1" d="M 395.5,262.5 C 396.833,263.167 396.833,263.167 395.5,262.5 Z"/></g>
<g><path style="opacity:0.012" fill="#2b79bf" d="M 395.5,264.5 C 398.001,264.511 398.168,265.178 396,266.5C 395.536,265.906 395.369,265.239 395.5,264.5 Z"/></g>
<g><path style="opacity:0.502" fill="#5197cd" d="M 392.5,175.5 C 393.302,176.952 393.802,178.618 394,180.5C 394.667,234.5 394.667,288.5 394,342.5C 393.099,349.372 390.933,355.705 387.5,361.5C 392.665,348.347 394.665,334.681 393.5,320.5C 393.5,309.833 393.5,299.167 393.5,288.5C 393.5,283.167 393.5,277.833 393.5,272.5C 393.5,258.833 393.5,245.167 393.5,231.5C 393.5,223.5 393.5,215.5 393.5,207.5C 393.672,197.143 393.339,186.81 392.5,176.5C 392.5,176.167 392.5,175.833 392.5,175.5 Z"/></g>
<g><path style="opacity:0.008" fill="#2d8dc5" d="M 130.5,268.5 C 131.833,269.167 131.833,269.167 130.5,268.5 Z"/></g>
<g><path style="opacity:0.004" fill="#2a79c0" d="M 395.5,268.5 C 396.833,269.167 396.833,269.167 395.5,268.5 Z"/></g>
<g><path style="opacity:0.004" fill="#2a78bf" d="M 395.5,272.5 C 396.833,273.167 396.833,273.167 395.5,272.5 Z"/></g>
<g><path style="opacity:0.997" fill="#106dd1" d="M 393.5,272.5 C 393.5,277.833 393.5,283.167 393.5,288.5C 391.767,289.008 391.434,289.841 392.5,291C 390.109,293.733 390.109,296.4 392.5,299C 389.791,301.486 387.624,304.32 386,307.5C 385.61,305.578 384.61,303.578 383,301.5C 382.167,303 381,304.167 379.5,305C 380.956,305.423 381.456,306.256 381,307.5C 379.636,306.304 378.136,305.304 376.5,304.5C 373.181,306.381 370.681,305.714 369,302.5C 368.28,304.112 368.446,305.612 369.5,307C 368.333,308.167 367.167,309.333 366,310.5C 365.333,307.833 364.667,307.833 364,310.5C 363.28,308.888 363.446,307.388 364.5,306C 363.167,305.333 361.833,305.333 360.5,306C 361.747,307.494 361.747,308.994 360.5,310.5C 360.264,309.753 359.93,308.92 359.5,308C 358.668,307.312 358.002,307.479 357.5,308.5C 360.588,311.99 360.088,312.99 356,311.5C 354.618,313.581 352.951,313.915 351,312.5C 349.989,312.892 349.489,313.559 349.5,314.5C 348.833,313.833 348.167,313.167 347.5,312.5C 346.28,313.711 345.113,313.711 344,312.5C 341.143,316.18 337.31,318.18 332.5,318.5C 331.914,318.291 331.414,317.957 331,317.5C 328.585,319.118 326.418,321.451 324.5,324.5C 326.983,318.267 325.317,313.601 319.5,310.5C 316.695,309.681 313.695,309.181 310.5,309C 311.006,306.468 312.173,304.302 314,302.5C 315.418,305.001 316.418,304.668 317,301.5C 317.419,302.672 318.085,303.672 319,304.5C 320.705,303.237 322.372,302.903 324,303.5C 325.204,302.529 325.704,301.529 325.5,300.5C 328.002,301.683 330.335,302.349 332.5,302.5C 333.719,301.354 335.052,300.354 336.5,299.5C 336.023,298.522 335.357,297.689 334.5,297C 335.126,296.25 335.626,295.416 336,294.5C 336.543,296.631 337.376,298.631 338.5,300.5C 338.911,299.738 339.077,298.738 339,297.5C 340.333,296.833 341.667,296.167 343,295.5C 343.424,299.19 344.258,299.357 345.5,296C 344.294,291.636 344.794,291.469 347,295.5C 348.943,293.285 350.609,293.285 352,295.5C 354.178,294.107 355.178,292.44 355,290.5C 357.015,291.842 359.182,292.342 361.5,292C 358.546,287.922 359.546,286.422 364.5,287.5C 365.751,284.511 367.751,283.511 370.5,284.5C 371.298,282.922 371.798,281.256 372,279.5C 372.29,281.044 372.956,282.377 374,283.5C 375.895,277.139 378.562,276.139 382,280.5C 384.543,279.124 384.709,277.957 382.5,277C 384.794,275.866 386.961,275.366 389,275.5C 389.915,276.328 390.581,277.328 391,278.5C 391.624,276.536 391.124,274.869 389.5,273.5C 389.808,272.692 390.308,272.025 391,271.5C 391.333,267.833 391.667,264.167 392,260.5C 392.176,264.688 392.676,268.688 393.5,272.5 Z"/></g>
<g><path style="opacity:0.997" fill="#f3f5f4" d="M 177.5,281.5 C 178.5,281.167 179.167,280.5 179.5,279.5C 181.479,276.854 183.812,274.521 186.5,272.5C 191.319,276.818 195.985,281.318 200.5,286C 203.5,287.833 206.5,289.667 209.5,291.5C 207.372,296.385 205.538,301.385 204,306.5C 202.951,307.517 201.784,307.684 200.5,307C 189.819,302.504 180.819,295.837 173.5,287C 174.665,285.008 175.998,283.175 177.5,281.5 Z"/></g>
<g><path style="opacity:0.008" fill="#2a78c0" d="M 395.5,280.5 C 396.833,281.167 396.833,281.167 395.5,280.5 Z"/></g>
<g><path style="opacity:0.008" fill="#2f8bc3" d="M 130.5,284.5 C 131.833,285.167 131.833,285.167 130.5,284.5 Z"/></g>
<g><path style="opacity:0.012" fill="#2a75c0" d="M 395.5,284.5 C 396.833,285.167 396.833,285.167 395.5,284.5 Z"/></g>
<g><path style="opacity:0.004" fill="#2a74c1" d="M 395.5,286.5 C 396.833,287.167 396.833,287.167 395.5,286.5 Z"/></g>
<g><path style="opacity:0.004" fill="#2a73bf" d="M 395.5,288.5 C 396.833,289.167 396.833,289.167 395.5,288.5 Z"/></g>
<g><path style="opacity:0.984" fill="#2766dc" d="M 241.5,263.5 C 243.173,264.343 244.34,265.676 245,267.5C 247.347,277.224 249.847,286.89 252.5,296.5C 252.565,296.938 252.399,297.272 252,297.5C 250.041,293.331 248.541,288.998 247.5,284.5C 245.622,283.339 244.622,284.006 244.5,286.5C 247.604,296.75 250.937,306.917 254.5,317C 254.43,317.765 254.097,318.265 253.5,318.5C 249.102,306.306 245.102,293.973 241.5,281.5C 241.435,281.062 241.601,280.728 242,280.5C 243.803,284.512 244.803,284.178 245,279.5C 245.763,282.063 246.263,282.063 246.5,279.5C 245.27,275.182 244.103,270.849 243,266.5C 242.167,265.667 241.333,264.833 240.5,264C 240.728,263.601 241.062,263.435 241.5,263.5 Z"/></g>
<g><path style="opacity:0.006" fill="#2972bc" d="M 395.5,291.5 C 396.525,291.897 396.692,292.563 396,293.5C 395.536,292.906 395.369,292.239 395.5,291.5 Z"/></g>
<g><path style="opacity:0.008" fill="#2d88c4" d="M 130.5,292.5 C 131.833,293.167 131.833,293.167 130.5,292.5 Z"/></g>
<g><path style="opacity:0.997" fill="#137ed8" d="M 181.5,220.5 C 181.953,224.693 183.119,228.693 185,232.5C 190.884,240.365 198.384,246.198 207.5,250C 217.241,253.136 226.908,256.469 236.5,260C 238.346,261.03 240.013,262.196 241.5,263.5C 241.062,263.435 240.728,263.601 240.5,264C 241.333,264.833 242.167,265.667 243,266.5C 244.103,270.849 245.27,275.182 246.5,279.5C 246.263,282.063 245.763,282.063 245,279.5C 244.803,284.178 243.803,284.512 242,280.5C 241.601,280.728 241.435,281.062 241.5,281.5C 239.995,277.181 237.995,273.014 235.5,269C 229.95,265.427 225.116,266.26 221,271.5C 216.895,284.644 212.728,297.644 208.5,310.5C 206.896,311.287 206.229,312.62 206.5,314.5C 196.167,314.5 185.833,314.5 175.5,314.5C 175.611,313.883 175.944,313.383 176.5,313C 178.9,312.814 181.234,312.314 183.5,311.5C 181.807,310.772 180.307,309.772 179,308.5C 177.981,309.687 176.814,310.687 175.5,311.5C 173.345,311.162 171.011,311.162 168.5,311.5C 167.299,313.648 166.466,315.648 166,317.5C 164.84,315.203 163.84,315.536 163,318.5C 162.667,318.167 162.333,317.833 162,317.5C 159.331,320.164 156.164,321.998 152.5,323C 153.448,323.483 154.448,323.649 155.5,323.5C 155.649,324.552 155.483,325.552 155,326.5C 153.853,325.542 152.853,325.875 152,327.5C 151.529,329.246 150.862,330.913 150,332.5C 149.573,329.507 148.406,329.007 146.5,331C 147.451,331.718 147.617,332.551 147,333.5C 145.287,332.122 143.953,330.455 143,328.5C 140.489,330.872 138.156,330.538 136,327.5C 135.501,322.511 135.334,317.511 135.5,312.5C 136.756,312.096 137.923,311.429 139,310.5C 140.789,311.409 142.623,311.576 144.5,311C 145.833,310.333 145.833,309.667 144.5,309C 145.167,308.667 145.833,308.333 146.5,308C 145.483,306.951 145.316,305.784 146,304.5C 146.333,304.833 146.667,305.167 147,305.5C 148.734,304.751 150.567,304.251 152.5,304C 153.917,301.174 155.417,301.007 157,303.5C 157.85,302.576 158.85,302.576 160,303.5C 161.584,303.012 162.751,302.012 163.5,300.5C 164.086,300.709 164.586,301.043 165,301.5C 166.113,300.24 166.28,299.073 165.5,298C 166.833,297.333 168.167,296.667 169.5,296C 168.74,294.559 168.074,293.059 167.5,291.5C 168.651,290.269 169.817,290.269 171,291.5C 171.668,287.151 173.668,283.484 177,280.5C 177.399,280.728 177.565,281.062 177.5,281.5C 175.998,283.175 174.665,285.008 173.5,287C 180.819,295.837 189.819,302.504 200.5,307C 201.784,307.684 202.951,307.517 204,306.5C 205.538,301.385 207.372,296.385 209.5,291.5C 206.5,289.667 203.5,287.833 200.5,286C 195.985,281.318 191.319,276.818 186.5,272.5C 183.812,274.521 181.479,276.854 179.5,279.5C 178.475,279.103 178.308,278.437 179,277.5C 180.685,275.983 182.185,274.316 183.5,272.5C 182.902,271.205 182.402,269.872 182,268.5C 181.517,269.448 181.351,270.448 181.5,271.5C 179.473,271.662 177.473,271.495 175.5,271C 179.5,270.333 179.5,269.667 175.5,269C 178.022,267.314 177.689,265.981 174.5,265C 175,264.5 175.5,264 176,263.5C 178.333,263.833 180.667,264.167 183,264.5C 183.833,263.5 184.667,262.5 185.5,261.5C 184.984,262.758 185.65,263.758 187.5,264.5C 187.669,263.603 188.002,262.603 188.5,261.5C 189.315,263.276 190.482,263.943 192,263.5C 194.274,260.559 197.107,258.225 200.5,256.5C 202.123,257.476 203.457,256.976 204.5,255C 202.915,254.915 201.582,254.749 200.5,254.5C 201.689,253.571 203.022,253.238 204.5,253.5C 204.762,252.022 204.429,250.689 203.5,249.5C 198.971,247.073 194.638,244.406 190.5,241.5C 183.822,235.838 180.822,228.838 181.5,220.5 Z"/></g>
<g><path style="opacity:0.996" fill="#f8942d" d="M 241.5,281.5 C 245.102,293.973 249.102,306.306 253.5,318.5C 254.129,321.397 255.129,324.064 256.5,326.5C 257.309,331.094 258.809,335.427 261,339.5C 264.454,332.262 267.621,324.928 270.5,317.5C 272.5,316.167 274.167,314.5 275.5,312.5C 290.504,312.333 305.504,312.5 320.5,313C 326.036,317.838 325.703,322.171 319.5,326C 306.833,326.333 294.167,326.667 281.5,327C 277.26,335.889 272.927,344.723 268.5,353.5C 263.343,358.423 257.843,358.756 252,354.5C 248.345,344.871 244.845,335.204 241.5,325.5C 238.068,313.304 234.068,301.304 229.5,289.5C 227.301,295.429 225.301,301.429 223.5,307.5C 221.826,313.19 219.992,318.857 218,324.5C 216.786,326.049 215.286,327.215 213.5,328C 200.495,329.796 187.495,329.962 174.5,328.5C 170.5,324.5 170.5,320.5 174.5,316.5C 185.439,315.854 196.439,315.188 207.5,314.5C 208.246,313.264 208.579,311.93 208.5,310.5C 212.728,297.644 216.895,284.644 221,271.5C 225.116,266.26 229.95,265.427 235.5,269C 237.995,273.014 239.995,277.181 241.5,281.5 Z"/></g>
<g><path style="opacity:0.997" fill="#0f67cf" d="M 393.5,288.5 C 393.5,299.167 393.5,309.833 393.5,320.5C 392.883,320.389 392.383,320.056 392,319.5C 391.502,322.482 391.335,325.482 391.5,328.5C 388.138,328.93 385.305,327.93 383,325.5C 382.667,326.5 382.333,327.5 382,328.5C 380.305,328.776 378.472,328.443 376.5,327.5C 374.279,328.116 373.612,329.283 374.5,331C 372.266,332.234 370.766,334.067 370,336.5C 367.174,333.352 364.841,333.352 363,336.5C 361.417,334.007 359.917,334.174 358.5,337C 359.849,338.635 359.682,340.135 358,341.5C 356.984,340.366 356.317,340.699 356,342.5C 354.345,342.198 353.012,340.864 352,338.5C 351.383,339.449 351.549,340.282 352.5,341C 350.699,341.317 350.366,341.984 351.5,343C 350.123,344.241 348.79,344.408 347.5,343.5C 350.106,337.637 349.106,337.137 344.5,342C 344.645,342.772 344.978,343.439 345.5,344C 343.402,344.014 341.569,343.847 340,343.5C 339.691,344.766 339.191,345.933 338.5,347C 338.833,347.333 339.167,347.667 339.5,348C 337.22,348.233 335.22,349.066 333.5,350.5C 332.914,350.291 332.414,349.957 332,349.5C 332.979,351.279 332.646,352.945 331,354.5C 330.798,352.744 330.298,351.078 329.5,349.5C 327.509,350.427 325.509,350.594 323.5,350C 324.949,351.117 326.616,351.784 328.5,352C 326.699,352.317 326.366,352.984 327.5,354C 325.892,354.658 324.725,354.158 324,352.5C 323.676,354.569 322.842,354.902 321.5,353.5C 319.889,354.32 319.222,355.654 319.5,357.5C 316.925,358.279 314.592,358.113 312.5,357C 313,356.5 313.5,356 314,355.5C 315.011,356.337 316.178,356.67 317.5,356.5C 316.618,352.857 314.284,351.69 310.5,353C 311.308,353.308 311.975,353.808 312.5,354.5C 311.459,356.585 309.959,358.252 308,359.5C 306.127,358.911 304.46,359.578 303,361.5C 301.333,360.833 299.667,360.167 298,359.5C 297.147,361.125 296.147,361.458 295,360.5C 295.207,362.751 295.373,365.085 295.5,367.5C 293.403,367.003 291.57,366.67 290,366.5C 289,367.5 288,368.5 287,369.5C 286.309,367.109 285.309,367.109 284,369.5C 283.667,368.833 283.333,368.167 283,367.5C 281.75,368.573 280.416,368.573 279,367.5C 276.501,368.842 276.335,370.008 278.5,371C 277.833,371.333 277.167,371.667 276.5,372C 276.833,373 277.167,374 277.5,375C 277,375.5 276.5,376 276,376.5C 275,375.5 274,374.5 273,373.5C 270.975,375.725 268.642,376.059 266,374.5C 265.175,376.701 265.675,378.534 267.5,380C 266.646,381.022 265.646,381.855 264.5,382.5C 260.895,380.694 258.395,381.694 257,385.5C 254.886,384.047 253.552,382.047 253,379.5C 250.577,380.712 248.244,382.046 246,383.5C 245.667,382.833 245.333,382.167 245,381.5C 243.536,384.887 241.536,384.887 239,381.5C 237.066,383.419 237.233,384.919 239.5,386C 236.672,385.905 233.672,386.072 230.5,386.5C 230.5,387.5 230.5,388.5 230.5,389.5C 219.828,389.333 209.161,389.5 198.5,390C 217.671,390.168 236.671,390.668 255.5,391.5C 232.498,391.667 209.498,391.5 186.5,391C 181.757,390.471 177.091,389.638 172.5,388.5C 172.167,388.5 171.833,388.5 171.5,388.5C 168.789,385.492 169.456,384.825 173.5,386.5C 175.187,386.24 176.687,385.573 178,384.5C 178.456,385.744 177.956,386.577 176.5,387C 178.044,388.187 179.711,388.52 181.5,388C 180.833,387.333 180.167,386.667 179.5,386C 180.109,383.942 181.109,383.109 182.5,383.5C 180.96,382.468 180.46,381.135 181,379.5C 181.308,380.308 181.808,380.975 182.5,381.5C 183.5,380.167 184.5,380.167 185.5,381.5C 185.45,380.152 185.783,378.652 186.5,377C 184.071,376.549 183.904,375.715 186,374.5C 188.019,374.432 189.853,375.432 191.5,377.5C 192.971,376.619 193.804,375.286 194,373.5C 196.545,374.797 199.045,374.631 201.5,373C 198.007,371.912 197.841,370.745 201,369.5C 201.333,368.5 201.667,367.5 202,366.5C 205.509,368.433 208.842,368.433 212,366.5C 212.561,367.022 213.228,367.355 214,367.5C 215.689,366.142 217.022,364.475 218,362.5C 219.333,363.167 220.667,363.833 222,364.5C 223.5,363 225,361.5 226.5,360C 228.949,360.437 231.283,360.437 233.5,360C 232.167,358.16 232.334,357.66 234,358.5C 235.379,355.93 237.046,353.596 239,351.5C 239.317,353.301 239.984,353.634 241,352.5C 243.096,353.715 242.929,354.549 240.5,355C 241,355.5 241.5,356 242,356.5C 243.992,355.335 245.825,354.002 247.5,352.5C 248.63,352.077 248.797,350.743 248,348.5C 245.367,341.396 242.867,334.23 240.5,327C 240.57,326.235 240.903,325.735 241.5,325.5C 244.845,335.204 248.345,344.871 252,354.5C 257.843,358.756 263.343,358.423 268.5,353.5C 268.81,354.738 269.31,354.738 270,353.5C 274.167,345.167 278.333,336.833 282.5,328.5C 295.154,327.667 307.82,327.167 320.5,327C 321.984,326.338 323.317,325.504 324.5,324.5C 326.418,321.451 328.585,319.118 331,317.5C 331.414,317.957 331.914,318.291 332.5,318.5C 337.31,318.18 341.143,316.18 344,312.5C 345.113,313.711 346.28,313.711 347.5,312.5C 348.167,313.167 348.833,313.833 349.5,314.5C 349.489,313.559 349.989,312.892 351,312.5C 352.951,313.915 354.618,313.581 356,311.5C 360.088,312.99 360.588,311.99 357.5,308.5C 358.002,307.479 358.668,307.312 359.5,308C 359.93,308.92 360.264,309.753 360.5,310.5C 361.747,308.994 361.747,307.494 360.5,306C 361.833,305.333 363.167,305.333 364.5,306C 363.446,307.388 363.28,308.888 364,310.5C 364.667,307.833 365.333,307.833 366,310.5C 367.167,309.333 368.333,308.167 369.5,307C 368.446,305.612 368.28,304.112 369,302.5C 370.681,305.714 373.181,306.381 376.5,304.5C 378.136,305.304 379.636,306.304 381,307.5C 381.456,306.256 380.956,305.423 379.5,305C 381,304.167 382.167,303 383,301.5C 384.61,303.578 385.61,305.578 386,307.5C 387.624,304.32 389.791,301.486 392.5,299C 390.109,296.4 390.109,293.733 392.5,291C 391.434,289.841 391.767,289.008 393.5,288.5 Z"/></g>
<g><path style="opacity:0.008" fill="#2f83c0" d="M 130.5,300.5 C 131.833,301.167 131.833,301.167 130.5,300.5 Z"/></g>
<g><path style="opacity:0.004" fill="#2973c0" d="M 395.5,300.5 C 396.833,301.167 396.833,301.167 395.5,300.5 Z"/></g>
<g><path style="opacity:0.998" fill="#135ad2" d="M 279.5,183.5 C 279.5,223.167 279.5,262.833 279.5,302.5C 287.5,302.5 295.5,302.5 303.5,302.5C 303.5,289.833 303.5,277.167 303.5,264.5C 314.881,264.856 326.215,264.356 337.5,263C 343.279,261.275 348.612,258.775 353.5,255.5C 348.803,260.187 343.136,263.354 336.5,265C 326.207,266.266 315.874,266.766 305.5,266.5C 305.96,278.934 305.46,291.267 304,303.5C 295.667,304.833 287.333,304.833 279,303.5C 278.5,278.502 278.333,253.502 278.5,228.5C 278.5,213.833 278.5,199.167 278.5,184.5C 278.5,183.833 278.833,183.5 279.5,183.5 Z"/></g>
<g><path style="opacity:0.008" fill="#286fbc" d="M 395.5,304.5 C 396.525,304.897 396.692,305.563 396,306.5C 395.536,305.906 395.369,305.239 395.5,304.5 Z"/></g>
<g><path style="opacity:0.008" fill="#2870bc" d="M 395.5,308.5 C 396.525,308.897 396.692,309.563 396,310.5C 395.536,309.906 395.369,309.239 395.5,308.5 Z"/></g>
<g><path style="opacity:0.004" fill="#2971bb" d="M 395.5,312.5 C 396.833,313.167 396.833,313.167 395.5,312.5 Z"/></g>
<g><path style="opacity:0.004" fill="#296ebb" d="M 395.5,316.5 C 396.833,317.167 396.833,317.167 395.5,316.5 Z"/></g>
<g><path style="opacity:0.004" fill="#266aba" d="M 395.5,320.5 C 396.525,320.897 396.692,321.563 396,322.5C 395.536,321.906 395.369,321.239 395.5,320.5 Z"/></g>
<g><path style="opacity:0.997" fill="#106dd1" d="M 247.5,352.5 C 245.825,354.002 243.992,355.335 242,356.5C 241.5,356 241,355.5 240.5,355C 242.929,354.549 243.096,353.715 241,352.5C 239.984,353.634 239.317,353.301 239,351.5C 237.046,353.596 235.379,355.93 234,358.5C 232.334,357.66 232.167,358.16 233.5,360C 231.283,360.437 228.949,360.437 226.5,360C 225,361.5 223.5,363 222,364.5C 220.667,363.833 219.333,363.167 218,362.5C 217.022,364.475 215.689,366.142 214,367.5C 213.228,367.355 212.561,367.022 212,366.5C 208.842,368.433 205.509,368.433 202,366.5C 201.667,367.5 201.333,368.5 201,369.5C 197.841,370.745 198.007,371.912 201.5,373C 199.045,374.631 196.545,374.797 194,373.5C 193.804,375.286 192.971,376.619 191.5,377.5C 189.853,375.432 188.019,374.432 186,374.5C 183.904,375.715 184.071,376.549 186.5,377C 185.783,378.652 185.45,380.152 185.5,381.5C 184.5,380.167 183.5,380.167 182.5,381.5C 181.808,380.975 181.308,380.308 181,379.5C 180.46,381.135 180.96,382.468 182.5,383.5C 181.109,383.109 180.109,383.942 179.5,386C 180.167,386.667 180.833,387.333 181.5,388C 179.711,388.52 178.044,388.187 176.5,387C 177.956,386.577 178.456,385.744 178,384.5C 176.687,385.573 175.187,386.24 173.5,386.5C 169.456,384.825 168.789,385.492 171.5,388.5C 170.5,388.5 169.5,388.5 168.5,388.5C 163.87,385.514 159.203,382.514 154.5,379.5C 153.5,378.167 152.5,376.833 151.5,375.5C 150.859,374.518 150.193,373.518 149.5,372.5C 150.815,370.684 152.315,369.017 154,367.5C 154.333,367.833 154.667,368.167 155,368.5C 156.079,366.606 157.413,366.273 159,367.5C 162.716,366.437 165.383,364.103 167,360.5C 167.725,362.158 168.892,362.658 170.5,362C 170.167,361.667 169.833,361.333 169.5,361C 170.471,359.796 171.471,359.296 172.5,359.5C 171.371,357.471 171.871,357.137 174,358.5C 174.833,357.667 175.667,356.833 176.5,356C 175.549,355.282 175.383,354.449 176,353.5C 176.876,355.988 178.543,357.655 181,358.5C 182.762,358.056 182.595,357.556 180.5,357C 183.219,355.785 185.552,354.285 187.5,352.5C 188.833,354.182 190,355.849 191,357.5C 192.996,355.95 195.162,354.616 197.5,353.5C 194.873,351.751 194.873,350.084 197.5,348.5C 198.086,348.709 198.586,349.043 199,349.5C 199.93,347.457 200.43,345.624 200.5,344C 201.744,343.544 202.577,344.044 203,345.5C 203.725,343.842 204.892,343.342 206.5,344C 204.842,344.725 204.342,345.892 205,347.5C 207.724,344.374 209.891,341.374 211.5,338.5C 211.807,339.887 211.807,341.554 211.5,343.5C 215.636,343.285 216.636,341.785 214.5,339C 214.944,337.238 215.444,337.405 216,339.5C 216.308,338.692 216.808,338.025 217.5,337.5C 218.72,338.711 219.887,338.711 221,337.5C 221.308,338.308 221.808,338.975 222.5,339.5C 224.046,338.316 225.713,337.316 227.5,336.5C 226.038,336.935 225.038,336.102 224.5,334C 225.148,332.56 225.481,331.06 225.5,329.5C 227.451,329.227 228.951,329.893 230,331.5C 232.167,330 232,328.833 229.5,328C 230.67,326.245 232.337,325.245 234.5,325C 230.81,324.576 230.643,323.742 234,322.5C 235,323.833 236,325.167 237,326.5C 238.156,325.007 238.99,325.174 239.5,327C 238.711,327.546 237.711,328.213 236.5,329C 237.793,329.49 239.127,329.657 240.5,329.5C 240.915,332.368 239.915,334.535 237.5,336C 239.004,337.337 240.004,339.004 240.5,341C 239.497,344.76 240.664,347.926 244,350.5C 246.116,348.152 247.282,348.819 247.5,352.5 Z"/></g>
<g><path style="opacity:0.004" fill="#2d7fbd" d="M 130.5,324.5 C 131.833,325.167 131.833,325.167 130.5,324.5 Z"/></g>
<g><path style="opacity:0.993" fill="#3262e2" d="M 319.5,310.5 C 325.317,313.601 326.983,318.267 324.5,324.5C 323.317,325.504 321.984,326.338 320.5,327C 307.82,327.167 295.154,327.667 282.5,328.5C 278.333,336.833 274.167,345.167 270,353.5C 269.31,354.738 268.81,354.738 268.5,353.5C 272.927,344.723 277.26,335.889 281.5,327C 294.167,326.667 306.833,326.333 319.5,326C 325.703,322.171 326.036,317.838 320.5,313C 305.504,312.5 290.504,312.333 275.5,312.5C 275.611,311.883 275.944,311.383 276.5,311C 290.829,310.5 305.163,310.333 319.5,310.5 Z"/></g>
<g><path style="opacity:0.004" fill="#2669b8" d="M 395.5,330.5 C 396.833,331.167 396.833,331.167 395.5,330.5 Z"/></g>
<g><path style="opacity:0.004" fill="#2d7cbd" d="M 130.5,332.5 C 131.833,333.167 131.833,333.167 130.5,332.5 Z"/></g>
<g><path style="opacity:0.997" fill="#1161cd" d="M 393.5,320.5 C 394.665,334.681 392.665,348.347 387.5,361.5C 387.167,362.833 386.833,364.167 386.5,365.5C 379.163,375.322 369.83,382.822 358.5,388C 354.986,389.562 351.319,390.395 347.5,390.5C 316.844,391.4 286.177,391.733 255.5,391.5C 236.671,390.668 217.671,390.168 198.5,390C 209.161,389.5 219.828,389.333 230.5,389.5C 230.5,388.5 230.5,387.5 230.5,386.5C 233.672,386.072 236.672,385.905 239.5,386C 237.233,384.919 237.066,383.419 239,381.5C 241.536,384.887 243.536,384.887 245,381.5C 245.333,382.167 245.667,382.833 246,383.5C 248.244,382.046 250.577,380.712 253,379.5C 253.552,382.047 254.886,384.047 257,385.5C 258.395,381.694 260.895,380.694 264.5,382.5C 265.646,381.855 266.646,381.022 267.5,380C 265.675,378.534 265.175,376.701 266,374.5C 268.642,376.059 270.975,375.725 273,373.5C 274,374.5 275,375.5 276,376.5C 276.5,376 277,375.5 277.5,375C 277.167,374 276.833,373 276.5,372C 277.167,371.667 277.833,371.333 278.5,371C 276.335,370.008 276.501,368.842 279,367.5C 280.416,368.573 281.75,368.573 283,367.5C 283.333,368.167 283.667,368.833 284,369.5C 285.309,367.109 286.309,367.109 287,369.5C 288,368.5 289,367.5 290,366.5C 291.57,366.67 293.403,367.003 295.5,367.5C 295.373,365.085 295.207,362.751 295,360.5C 296.147,361.458 297.147,361.125 298,359.5C 299.667,360.167 301.333,360.833 303,361.5C 304.46,359.578 306.127,358.911 308,359.5C 309.959,358.252 311.459,356.585 312.5,354.5C 311.975,353.808 311.308,353.308 310.5,353C 314.284,351.69 316.618,352.857 317.5,356.5C 316.178,356.67 315.011,356.337 314,355.5C 313.5,356 313,356.5 312.5,357C 314.592,358.113 316.925,358.279 319.5,357.5C 319.222,355.654 319.889,354.32 321.5,353.5C 322.842,354.902 323.676,354.569 324,352.5C 324.725,354.158 325.892,354.658 327.5,354C 326.366,352.984 326.699,352.317 328.5,352C 326.616,351.784 324.949,351.117 323.5,350C 325.509,350.594 327.509,350.427 329.5,349.5C 330.298,351.078 330.798,352.744 331,354.5C 332.646,352.945 332.979,351.279 332,349.5C 332.414,349.957 332.914,350.291 333.5,350.5C 335.22,349.066 337.22,348.233 339.5,348C 339.167,347.667 338.833,347.333 338.5,347C 339.191,345.933 339.691,344.766 340,343.5C 341.569,343.847 343.402,344.014 345.5,344C 344.978,343.439 344.645,342.772 344.5,342C 349.106,337.137 350.106,337.637 347.5,343.5C 348.79,344.408 350.123,344.241 351.5,343C 350.366,341.984 350.699,341.317 352.5,341C 351.549,340.282 351.383,339.449 352,338.5C 353.012,340.864 354.345,342.198 356,342.5C 356.317,340.699 356.984,340.366 358,341.5C 359.682,340.135 359.849,338.635 358.5,337C 359.917,334.174 361.417,334.007 363,336.5C 364.841,333.352 367.174,333.352 370,336.5C 370.766,334.067 372.266,332.234 374.5,331C 373.612,329.283 374.279,328.116 376.5,327.5C 378.472,328.443 380.305,328.776 382,328.5C 382.333,327.5 382.667,326.5 383,325.5C 385.305,327.93 388.138,328.93 391.5,328.5C 391.335,325.482 391.502,322.482 392,319.5C 392.383,320.056 392.883,320.389 393.5,320.5 Z"/></g>
<g><path style="opacity:0.004" fill="#2978b8" d="M 128.5,335.5 C 129.833,336.167 129.833,336.167 128.5,335.5 Z"/></g>
<g><path style="opacity:0.996" fill="#2f60dd" d="M 270.5,317.5 C 267.621,324.928 264.454,332.262 261,339.5C 258.809,335.427 257.309,331.094 256.5,326.5C 257.975,328.799 259.475,331.799 261,335.5C 264.047,329.701 266.714,323.701 269,317.5C 269.69,316.262 270.19,316.262 270.5,317.5 Z"/></g>
<g><path style="opacity:0.008" fill="#2b7abb" d="M 131.5,336.5 C 132.573,337.251 132.74,338.251 132,339.5C 131.517,338.552 131.351,337.552 131.5,336.5 Z"/></g>
<g><path style="opacity:0.998" fill="#1174d4" d="M 134.5,282.5 C 135.494,292.319 135.827,302.319 135.5,312.5C 135.334,317.511 135.501,322.511 136,327.5C 138.156,330.538 140.489,330.872 143,328.5C 143.953,330.455 145.287,332.122 147,333.5C 147.617,332.551 147.451,331.718 146.5,331C 148.406,329.007 149.573,329.507 150,332.5C 150.862,330.913 151.529,329.246 152,327.5C 152.853,325.875 153.853,325.542 155,326.5C 155.483,325.552 155.649,324.552 155.5,323.5C 154.448,323.649 153.448,323.483 152.5,323C 156.164,321.998 159.331,320.164 162,317.5C 162.333,317.833 162.667,318.167 163,318.5C 163.84,315.536 164.84,315.203 166,317.5C 166.466,315.648 167.299,313.648 168.5,311.5C 171.011,311.162 173.345,311.162 175.5,311.5C 176.814,310.687 177.981,309.687 179,308.5C 180.307,309.772 181.807,310.772 183.5,311.5C 181.234,312.314 178.9,312.814 176.5,313C 175.944,313.383 175.611,313.883 175.5,314.5C 173.895,315.006 173.561,315.673 174.5,316.5C 170.5,320.5 170.5,324.5 174.5,328.5C 173.262,328.81 173.262,329.31 174.5,330C 187.167,330.667 199.833,330.667 212.5,330C 215.937,328.895 218.437,326.728 220,323.5C 221.601,318.864 223.101,314.198 224.5,309.5C 224.457,308.584 224.124,307.917 223.5,307.5C 225.301,301.429 227.301,295.429 229.5,289.5C 234.068,301.304 238.068,313.304 241.5,325.5C 240.903,325.735 240.57,326.235 240.5,327C 242.867,334.23 245.367,341.396 248,348.5C 248.797,350.743 248.63,352.077 247.5,352.5C 247.282,348.819 246.116,348.152 244,350.5C 240.664,347.926 239.497,344.76 240.5,341C 240.004,339.004 239.004,337.337 237.5,336C 239.915,334.535 240.915,332.368 240.5,329.5C 239.127,329.657 237.793,329.49 236.5,329C 237.711,328.213 238.711,327.546 239.5,327C 238.99,325.174 238.156,325.007 237,326.5C 236,325.167 235,323.833 234,322.5C 230.643,323.742 230.81,324.576 234.5,325C 232.337,325.245 230.67,326.245 229.5,328C 232,328.833 232.167,330 230,331.5C 228.951,329.893 227.451,329.227 225.5,329.5C 225.481,331.06 225.148,332.56 224.5,334C 225.038,336.102 226.038,336.935 227.5,336.5C 225.713,337.316 224.046,338.316 222.5,339.5C 221.808,338.975 221.308,338.308 221,337.5C 219.887,338.711 218.72,338.711 217.5,337.5C 216.808,338.025 216.308,338.692 216,339.5C 215.444,337.405 214.944,337.238 214.5,339C 216.636,341.785 215.636,343.285 211.5,343.5C 211.807,341.554 211.807,339.887 211.5,338.5C 209.891,341.374 207.724,344.374 205,347.5C 204.342,345.892 204.842,344.725 206.5,344C 204.892,343.342 203.725,343.842 203,345.5C 202.577,344.044 201.744,343.544 200.5,344C 200.43,345.624 199.93,347.457 199,349.5C 198.586,349.043 198.086,348.709 197.5,348.5C 194.873,350.084 194.873,351.751 197.5,353.5C 195.162,354.616 192.996,355.95 191,357.5C 190,355.849 188.833,354.182 187.5,352.5C 185.552,354.285 183.219,355.785 180.5,357C 182.595,357.556 182.762,358.056 181,358.5C 178.543,357.655 176.876,355.988 176,353.5C 175.383,354.449 175.549,355.282 176.5,356C 175.667,356.833 174.833,357.667 174,358.5C 171.871,357.137 171.371,357.471 172.5,359.5C 171.471,359.296 170.471,359.796 169.5,361C 169.833,361.333 170.167,361.667 170.5,362C 168.892,362.658 167.725,362.158 167,360.5C 165.383,364.103 162.716,366.437 159,367.5C 157.413,366.273 156.079,366.606 155,368.5C 154.667,368.167 154.333,367.833 154,367.5C 152.315,369.017 150.815,370.684 149.5,372.5C 150.193,373.518 150.859,374.518 151.5,375.5C 149.304,374.162 147.304,372.495 145.5,370.5C 144.974,368.77 143.974,367.436 142.5,366.5C 142.5,365.833 142.5,365.167 142.5,364.5C 139.849,359.053 137.683,353.386 136,347.5C 134.581,325.869 134.081,304.202 134.5,282.5 Z"/></g>
<g><path style="opacity:0.99" fill="#1760f4" d="M 223.5,307.5 C 224.124,307.917 224.457,308.584 224.5,309.5C 223.101,314.198 221.601,318.864 220,323.5C 218.437,326.728 215.937,328.895 212.5,330C 199.833,330.667 187.167,330.667 174.5,330C 173.262,329.31 173.262,328.81 174.5,328.5C 187.495,329.962 200.495,329.796 213.5,328C 215.286,327.215 216.786,326.049 218,324.5C 219.992,318.857 221.826,313.19 223.5,307.5 Z"/></g>
<g><path style="opacity:0.993" fill="#0964f7" d="M 208.5,310.5 C 208.579,311.93 208.246,313.264 207.5,314.5C 196.439,315.188 185.439,315.854 174.5,316.5C 173.561,315.673 173.895,315.006 175.5,314.5C 185.833,314.5 196.167,314.5 206.5,314.5C 206.229,312.62 206.896,311.287 208.5,310.5 Z"/></g>
<g><path style="opacity:0.004" fill="#2b78b7" d="M 133.5,344.5 C 132.833,345.167 132.833,345.167 133.5,344.5 Z"/></g>
<g><path style="opacity:0.004" fill="#2f77b9" d="M 136.5,357.5 C 135.833,356.167 135.833,356.167 136.5,357.5 Z"/></g>
<g><path style="opacity:0.008" fill="#2c74b8" d="M 136.5,357.5 C 136.833,357.5 137.167,357.5 137.5,357.5C 137.167,360.167 136.833,360.167 136.5,357.5 Z"/></g>
<g><path style="opacity:0.004" fill="#286fb2" d="M 135.5,363.5 C 136.525,363.897 136.692,364.563 136,365.5C 135.536,364.906 135.369,364.239 135.5,363.5 Z"/></g>
<g><path style="opacity:0.009" fill="#2871b6" d="M 141.5,364.5 C 141.328,365.492 141.662,366.158 142.5,366.5C 141.698,367.885 141.031,367.718 140.5,366C 140.57,365.235 140.903,364.735 141.5,364.5 Z"/></g>
<g><path style="opacity:0.004" fill="#2769b7" d="M 386.5,365.5 C 387.833,366.167 387.833,366.167 386.5,365.5 Z"/></g>
<g><path style="opacity:0.008" fill="#276eb4" d="M 145.5,370.5 C 145.631,371.239 145.464,371.906 145,372.5C 144.308,371.563 144.475,370.897 145.5,370.5 Z"/></g>
<g><path style="opacity:0.012" fill="#286eb0" d="M 143.5,373.5 C 144.833,374.167 144.833,374.167 143.5,373.5 Z"/></g>
<g><path style="opacity:0.004" fill="#2b6fb2" d="M 152.5,379.5 C 151.833,378.167 151.833,378.167 152.5,379.5 Z"/></g>
<g><path style="opacity:0.004" fill="#296fb7" d="M 152.5,379.5 C 153.167,379.5 153.833,379.5 154.5,379.5C 153.833,380.833 153.167,380.833 152.5,379.5 Z"/></g>
<g><path style="opacity:0.004" fill="#286eb1" d="M 154.5,382.5 C 155.833,383.167 155.833,383.167 154.5,382.5 Z"/></g>
<g><path style="opacity:0.008" fill="#2a6eb4" d="M 159.5,384.5 C 160.833,385.167 160.833,385.167 159.5,384.5 Z"/></g>
<g><path style="opacity:0.012" fill="#2c6db5" d="M 168.5,388.5 C 167.833,389.167 167.833,389.167 168.5,388.5 Z"/></g>
<g><path style="opacity:0.004" fill="#2c6fb7" d="M 171.5,390.5 C 172.833,391.167 172.833,391.167 171.5,390.5 Z"/></g>
<g><path style="opacity:0.29" fill="#3f79c0" d="M 172.5,388.5 C 177.091,389.638 181.757,390.471 186.5,391C 209.498,391.5 232.498,391.667 255.5,391.5C 286.177,391.733 316.844,391.4 347.5,390.5C 346.048,391.302 344.382,391.802 342.5,392C 289.5,392.667 236.5,392.667 183.5,392C 179.471,391.584 175.804,390.417 172.5,388.5 Z"/></g>
<g><path style="opacity:0.004" fill="#2c6db8" d="M 187.5,393.5 C 188.833,394.167 188.833,394.167 187.5,393.5 Z"/></g>
<g><path style="opacity:0.004" fill="#2b6fb7" d="M 189.5,393.5 C 190.833,394.167 190.833,394.167 189.5,393.5 Z"/></g>
<g><path style="opacity:0.004" fill="#2e6eb9" d="M 214.5,393.5 C 215.833,394.167 215.833,394.167 214.5,393.5 Z"/></g>
<g><path style="opacity:0.004" fill="#2e6ebb" d="M 251.5,393.5 C 252.833,394.167 252.833,394.167 251.5,393.5 Z"/></g>
</svg>
